<svg width="38" height="31" viewBox="0 0 38 31" fill="none" xmlns="http://www.w3.org/2000/svg">
<g clip-path="url(#clip0)">
<path d="M17.4167 10.3441V5.8125C17.4167 4.74409 16.3514 3.875 15.0417 3.875C14.4525 3.875 13.8836 4.05918 13.4429 4.39346L12.4208 5.16483C9.05781 7.70332 3.42802 11.9517 0.547363 14.3086C0.194824 14.5988 0 15.0213 0 15.5C0 15.9787 0.194824 16.4012 0.547363 16.692C3.42802 19.0483 9.05781 23.2967 12.4208 25.8352L13.4429 26.6066C13.8836 26.9409 14.4525 27.1251 15.0417 27.1251C16.3514 27.1251 17.4167 26.256 17.4167 25.1876V20.6711C28.817 20.8017 36.4167 23.735 36.4167 26.4792C36.4167 26.8362 36.7708 27.1251 37.2084 27.1251C37.646 27.1251 38.0001 26.8362 38.0001 26.4792C38 17.7762 28.8387 10.6594 17.4167 10.3441ZM16.625 19.375C16.1874 19.375 15.8333 19.6639 15.8333 20.0209V25.1875C15.8333 25.5438 15.4777 25.8334 15.0416 25.8334C14.8004 25.8334 14.6241 25.7387 14.519 25.6593L13.4969 24.8873C10.1417 22.3551 4.52734 18.118 1.66992 15.7806C1.62665 15.7453 1.58331 15.6444 1.58331 15.5C1.58331 15.3556 1.62658 15.2547 1.66992 15.22C4.52734 12.882 10.1417 8.64494 13.497 6.11269L14.519 5.34072C14.6242 5.26122 14.8005 5.16665 15.0417 5.16665C15.4777 5.16665 15.8334 5.45612 15.8334 5.8125V10.9791C15.8334 11.3361 16.1875 11.625 16.6251 11.625C26.1436 11.625 34.1144 16.6945 35.9962 23.4247C32.6176 21.0104 25.3024 19.375 16.625 19.375Z" fill="#474747"/>
</g>
<defs>
<clipPath id="clip0">
<rect width="38" height="31" fill="white"/>
</clipPath>
</defs>
</svg>
