<svg width="154" height="166" viewBox="0 0 154 166" fill="none" xmlns="http://www.w3.org/2000/svg">
<g clip-path="url(#clip0)">
<path d="M46.9653 155.661C46.9653 155.661 40.0078 143.374 29.5229 139.834C25.1229 138.348 23.2588 137.528 20.6322 133.708" stroke="#E6E6E6" stroke-width="2" stroke-miterlimit="10"/>
<path d="M23.4638 144.452C25.0367 143.909 28.6064 139.497 28.6064 139.497C28.6064 139.497 23.0601 138.233 21.4869 138.775C20.7561 139.054 20.1625 139.604 19.8316 140.311C19.5007 141.018 19.4584 141.825 19.7136 142.562C19.9688 143.299 20.5016 143.908 21.1993 144.261C21.897 144.614 22.705 144.682 23.4525 144.452L23.4638 144.452Z" fill="#E6E6E6"/>
<path d="M33.9759 150.668C35.6175 150.398 39.8899 146.652 39.8899 146.652C39.8899 146.652 34.6369 144.471 32.9944 144.741C32.6038 144.805 32.2298 144.945 31.8936 145.153C31.5575 145.362 31.2658 145.634 31.0352 145.955C30.8046 146.275 30.6397 146.638 30.5498 147.022C30.4599 147.406 30.4468 147.804 30.5113 148.194C30.5757 148.583 30.7165 148.956 30.9255 149.291C31.1345 149.626 31.4077 149.916 31.7294 150.146C32.0512 150.376 32.4152 150.54 32.8006 150.63C33.1861 150.719 33.5856 150.733 33.9761 150.668L33.9759 150.668Z" fill="#E6E6E6"/>
<path d="M18.7452 129.479C20.1074 130.431 22.3346 135.652 22.3346 135.652C22.3346 135.652 16.6505 135.353 15.2869 134.402C14.959 134.177 14.6791 133.89 14.4632 133.556C14.2473 133.223 14.0998 132.851 14.0292 132.46C13.9586 132.07 13.9663 131.669 14.0518 131.282C14.1373 130.894 14.299 130.528 14.5274 130.203C14.7559 129.878 15.0466 129.601 15.3829 129.389C15.7192 129.177 16.0943 129.033 16.4867 128.966C16.879 128.899 17.2808 128.91 17.6688 128.998C18.0569 129.087 18.4235 129.251 18.7475 129.481L18.7452 129.479Z" fill="#E6E6E6"/>
<path d="M46.4793 155.365C46.4793 155.365 44.8284 138.331 34.946 129.271C30.8 125.467 27.92 120.494 26.8926 114.967C26.4089 112.346 26.1675 109.687 26.1716 107.023" stroke="#535461" stroke-width="2" stroke-miterlimit="10"/>
<path d="M19.9822 101.277C20.7363 103.143 26.3148 107.193 26.3148 107.193C26.3148 107.193 27.5165 100.419 26.7624 98.5527C26.5852 98.1054 26.321 97.6973 25.9849 97.3522C25.6488 97.007 25.2476 96.7315 24.8042 96.5416C24.3609 96.3516 23.8842 96.251 23.4016 96.2454C22.919 96.2398 22.4401 96.3294 21.9925 96.5091C21.5448 96.6888 21.1373 96.9549 20.7932 97.2922C20.4492 97.6295 20.1756 98.0313 19.988 98.4744C19.8005 98.9176 19.7028 99.3933 19.7005 99.8743C19.6983 100.355 19.7915 100.832 19.9749 101.277H19.9822Z" fill="#F7B731"/>
<path d="M18.5557 113.864C20.2066 115.021 27.0989 115.4 27.0989 115.4C27.0989 115.4 24.4151 109.063 22.7641 107.904C22.3716 107.627 21.9281 107.429 21.4588 107.323C20.9896 107.217 20.504 107.204 20.0298 107.285C19.5556 107.367 19.1021 107.541 18.6954 107.797C18.2888 108.053 17.9369 108.387 17.6599 108.779C17.3829 109.171 17.1864 109.614 17.0815 110.082C16.9766 110.55 16.9654 111.034 17.0486 111.506C17.1318 111.978 17.3078 112.43 17.5663 112.834C17.8249 113.239 18.1611 113.588 18.5555 113.863L18.5557 113.864Z" fill="#F7B731"/>
<path d="M25.9461 131.43C27.964 131.598 34.0986 128.457 34.0986 128.457C34.0986 128.457 28.5712 124.332 26.5589 124.17C26.0748 124.119 25.5854 124.164 25.1193 124.304C24.6533 124.444 24.2199 124.676 23.8447 124.985C23.4695 125.294 23.16 125.674 22.9344 126.104C22.7087 126.534 22.5715 127.004 22.5306 127.488C22.4898 127.971 22.5463 128.458 22.6967 128.919C22.8472 129.38 23.0885 129.807 23.4066 130.174C23.7248 130.542 24.1133 130.842 24.5493 131.057C24.9854 131.273 25.4603 131.399 25.9461 131.43Z" fill="#F7B731"/>
<path d="M34.5388 143.467C36.4943 143.971 43.0783 141.909 43.0783 141.909C43.0783 141.909 38.3288 136.918 36.3751 136.413C35.9097 136.291 35.4247 136.262 34.948 136.327C34.4712 136.393 34.0121 136.551 33.5968 136.793C33.1816 137.036 32.8186 137.358 32.5284 137.74C32.2382 138.123 32.0267 138.559 31.906 139.023C31.7852 139.487 31.7577 139.97 31.8248 140.445C31.8919 140.92 32.0525 141.377 32.2973 141.79C32.542 142.203 32.8662 142.564 33.2511 142.852C33.6361 143.139 34.0743 143.348 34.5405 143.467L34.5388 143.467Z" fill="#F7B731"/>
<path d="M34.3666 112.901C33.5484 114.742 27.8359 118.601 27.8359 118.601C27.8359 118.601 26.8639 111.791 27.68 109.952C27.8743 109.514 28.1532 109.119 28.5007 108.789C28.8482 108.459 29.2576 108.2 29.7055 108.028C30.1533 107.855 30.6309 107.772 31.1109 107.784C31.5909 107.795 32.0639 107.901 32.5029 108.094C32.942 108.288 33.3385 108.566 33.6698 108.912C34.001 109.259 34.2606 109.667 34.4337 110.113C34.6067 110.559 34.6899 111.035 34.6784 111.514C34.6669 111.992 34.5609 112.463 34.3666 112.901V112.901Z" fill="#F7B731"/>
<path d="M44.2357 127.104C42.9038 128.616 36.2943 130.597 36.2943 130.597C36.2943 130.597 37.4114 123.808 38.7433 122.298C39.3829 121.572 40.2856 121.129 41.2528 121.067C42.2201 121.004 43.1727 121.327 43.901 121.965C44.6293 122.602 45.0737 123.502 45.1365 124.466C45.1993 125.43 44.8753 126.379 44.2357 127.105V127.104Z" fill="#F7B731"/>
<path d="M51.9296 142.222C50.8655 143.936 44.6934 147.002 44.6934 147.002C44.6934 147.002 44.642 140.125 45.6987 138.41C45.95 138.002 46.2794 137.647 46.6683 137.366C47.0572 137.084 47.4978 136.882 47.9651 136.771C48.4323 136.659 48.917 136.64 49.3916 136.716C49.8661 136.791 50.3211 136.958 50.7306 137.209C51.1402 137.459 51.4962 137.788 51.7784 138.175C52.0606 138.563 52.2635 139.002 52.3754 139.467C52.4873 139.933 52.5061 140.416 52.4307 140.889C52.3552 141.362 52.1871 141.815 51.9358 142.224L51.9296 142.222Z" fill="#F7B731"/>
<path d="M76.9648 166C119.471 166 153.93 163.752 153.93 160.978C153.93 158.204 119.471 155.956 76.9648 155.956C34.4583 155.956 0 158.204 0 160.978C0 163.752 34.4583 166 76.9648 166Z" fill="#E6E6E6"/>
<path opacity="0.1" d="M136.014 45.681C136.014 45.681 142.494 43.6122 143.157 45.681H136.014Z" fill="black"/>
<path d="M79.1292 53.4502C79.1292 53.4502 80.5939 45.7925 85.3093 45.7535L88.7537 52.8199L86.4567 54.3986C86.4567 54.3986 81.4653 54.5567 79.1292 53.4502Z" fill="#D0CDE1"/>
<path opacity="0.502" d="M88.7535 52.8179L86.4565 54.3986C86.4565 54.3986 82.9544 54.5095 80.433 53.8936C79.9846 53.7892 79.5478 53.6407 79.1289 53.4502C79.1321 53.4081 79.1411 53.3667 79.1557 53.327C79.1551 53.3174 79.1551 53.3078 79.1557 53.2982C79.3723 52.3371 79.6706 51.3961 80.0476 50.4855C80.1919 50.1426 80.3567 49.7876 80.5338 49.4344C81.224 48.1103 82.1943 46.8126 83.521 46.1701C84.012 45.9296 84.5466 45.7899 85.0929 45.7596H85.303L85.3771 45.9156L86.5436 48.3031L88.7535 52.8179Z" fill="black"/>
<path d="M127.89 84.637C127.89 84.637 132.834 84.1634 133.277 84.518C133.72 84.8725 136.526 86.69 138.188 85.5443C139.85 84.3987 138.742 80.4119 138.742 80.2537C138.742 80.0955 138.585 74.4521 138.585 74.4521L135.613 70.4651L131.89 63.4851L124.285 62.7357L124.491 73.822L124.452 79.5068L127.89 84.637Z" fill="#D0CDE1"/>
<path opacity="0.503" d="M127.89 84.637C127.89 84.637 132.834 84.1634 133.277 84.518C133.72 84.8725 136.526 86.69 138.188 85.5443C139.85 84.3987 138.742 80.4119 138.742 80.2537C138.742 80.0955 138.585 74.4521 138.585 74.4521L135.613 70.4651L131.89 63.4851L124.285 62.7357L124.491 73.822L124.452 79.5068L127.89 84.637Z" fill="black"/>
<path d="M84.3165 45.5565C84.3165 45.5565 83.923 50.3729 80.9112 50.4509C80.9112 50.4509 80.0584 49.9376 78.911 49.0835C76.266 47.1105 72.0675 43.3186 73.2275 39.7917C74.892 34.7394 82.9715 44.0557 82.9715 44.0557L83.5895 44.7495L84.3165 45.5565Z" fill="#FBBEBE"/>
<path opacity="0.1" d="M84.3163 45.5563C84.3163 45.5563 83.9228 50.3727 80.911 50.4506C80.911 50.4506 80.0582 49.9374 78.9108 49.0832L78.6533 48.7547C79.1637 49.0203 79.7263 49.1709 80.3014 49.196C81.0575 49.2124 81.9083 48.9332 82.4541 47.8452C82.7673 47.2253 83.0425 46.587 83.2782 45.9339C83.4226 45.5514 83.5248 45.1544 83.583 44.7499L84.3163 45.5563Z" fill="black"/>
<path d="M83.0101 54.2796L82.3323 53.4112L80.0457 50.4857L78.8838 48.9911C79.3937 49.258 79.9565 49.4094 80.5319 49.4346C81.2879 49.4509 82.1388 49.1717 82.6868 48.0816C83.0001 47.4617 83.2753 46.8234 83.5108 46.1703C83.8878 45.1047 83.8796 44.5558 83.7484 44.3719C83.6173 44.1881 84.5889 45.0883 85.0566 45.5298L85.073 45.5462C85.2069 45.6693 85.2933 45.7516 85.2933 45.7516L85.3737 45.9117L86.5211 48.1987L86.5334 48.2952C86.6379 49.0219 87.0252 53.6267 83.0101 54.2796Z" fill="#E6E6E6"/>
<path d="M106.738 155.89C106.738 155.89 103.411 158.062 101.748 157.738C100.085 157.413 98.3798 158.292 98.3798 158.292C97.2337 159.54 95.7884 160.477 94.1793 161.016C91.4868 161.924 87.7253 161.569 85.5869 160.856C84.5734 160.521 84.493 160.086 84.9792 159.553C85.521 158.955 86.7632 158.234 88.2012 157.382C90.9328 155.765 93.8642 152.566 93.8642 152.566C93.8642 152.566 93.9033 151.778 94.3791 151.423C94.6707 151.174 94.9382 150.899 95.1783 150.601C95.6028 150.1 96.0024 149.575 96.0024 149.575L105.787 149.891C105.787 149.891 105.954 150.595 106.084 151.314C106.193 151.903 106.278 152.503 106.222 152.735C106.103 153.246 106.5 153.72 106.5 153.72L106.675 155.332L106.738 155.89Z" fill="#2F2E41"/>
<path d="M127.22 158.612C127.103 159.084 126.961 159.932 126.896 160.33C126.875 160.466 126.863 160.548 126.863 160.548C126.863 160.548 126.07 162.285 121.674 162.917C117.278 163.55 117.278 161.456 117.278 161.456C117.278 161.456 117.294 161.23 117.323 160.891C117.4 159.967 117.558 158.2 117.674 157.824C117.832 157.311 117.556 155.06 117.556 155.06L117.509 152.708L117.476 151.065L124.765 150.314C124.812 150.857 124.89 151.397 125 151.932C125.046 152.225 125.155 152.505 125.319 152.753C125.715 153.19 125.954 155.122 125.954 155.122C125.954 155.122 127.375 157.98 127.22 158.612Z" fill="#2F2E41"/>
<path opacity="0.1" d="M105.795 149.889C105.795 149.889 105.962 150.593 106.092 151.312C105.035 151.505 100.414 152.303 99.2587 151.745C97.9527 151.113 95.1386 150.757 95.1386 150.757L95.1859 150.597C95.6104 150.096 96.01 149.571 96.01 149.571L105.795 149.889Z" fill="black"/>
<path opacity="0.1" d="M124.996 151.94C123.142 151.628 119.1 152.383 117.506 152.708L117.472 151.065L124.761 150.314C124.807 150.86 124.885 151.403 124.996 151.94Z" fill="black"/>
<path d="M129.118 92.0975L128.959 97.6632C128.959 97.6632 129.165 106.15 128.564 107.493C127.962 108.836 127.968 114.243 127.968 114.243C127.968 114.243 128.366 116.809 127.929 117.36C127.493 117.91 127.81 119.967 128.135 121.032C128.461 122.098 128.172 124.744 128.172 124.744L128.094 139.665C128.094 139.665 127.66 143.533 127.103 144.087C126.944 144.251 126.83 144.454 126.775 144.676C126.72 144.898 126.724 145.13 126.788 145.35C126.788 145.35 126.313 147.559 126.432 147.955C126.551 148.35 126.788 149.256 125.878 149.689C124.967 150.123 125.202 151.506 125.202 151.506C123.025 150.993 116.847 152.377 116.847 152.377C116.847 152.377 115.611 149.85 115.102 148.152C114.593 146.454 115.856 145.388 116.686 145.278C117.516 145.167 116.093 143.697 116.093 143.697C116.093 143.697 116.251 143.491 115.855 142.079C115.459 140.666 115.933 137.024 116.061 136.078C116.189 135.132 116.774 130.552 116.774 130.552C116.774 130.552 116.459 124.75 116.696 124.512C116.933 124.274 117.726 121.985 117.33 121.227C116.935 120.469 116.3 115.542 116.3 115.273C116.3 115.004 115.785 108.601 115.785 108.601C115.785 108.601 115.312 104.14 115.429 103.194C115.546 102.247 115.112 98.7346 115.112 98.7346C115.112 95.8111 113.41 92.6537 113.41 92.6537L113.367 92.7668L109.686 102.416C109.686 102.416 109.092 105.335 108.575 106.994C108.251 108.12 107.993 109.264 107.803 110.42L107.768 110.626C107.754 110.714 107.741 110.79 107.733 110.847L107.708 111.007C107.708 111.007 107.984 113.099 107.55 113.771C107.115 114.442 106.621 116.454 106.621 117.014C106.621 117.575 106.658 119.702 106.658 119.702C106.658 119.702 106.819 123.925 106.382 124.399C105.945 124.873 106.176 125.268 106.176 125.268C106.176 125.268 106.891 128.464 106.574 129.293C106.257 130.122 106.496 132.054 106.496 132.054C106.496 132.054 105.867 138.16 105.797 138.48C105.727 138.8 105.282 141.243 105.756 141.44C106.23 141.637 107.142 142.822 107.142 142.822C107.142 142.822 107.348 147.994 106.629 148.388C105.91 148.782 106.31 150.796 106.31 150.796C106.31 150.796 100.569 151.902 99.2606 151.269C97.9525 150.637 95.1405 150.282 95.1405 150.282L95.5341 148.985C95.5125 149.03 95.2498 149.451 95.0624 147.835C94.8563 146.137 96.529 146.967 96.529 146.967C96.529 146.967 97.835 147.283 95.7339 145.23C93.6328 143.177 94.6647 141.085 94.7835 141.085C94.9023 141.085 95.179 138.046 95.179 138.046C95.179 138.046 95.5354 136.229 95.2572 134.809C94.979 133.388 94.7442 128.966 94.7442 128.966C94.7442 128.966 94.9503 125.611 94.5856 124.388C94.221 123.164 94.8232 120.953 94.942 120.438C95.0608 119.922 94.5856 115.228 94.5856 115.228C94.5856 115.228 94.9833 113.019 94.7442 111.402C94.5051 109.784 94.9831 103.822 94.9831 103.822L95.6959 96.9526C95.6959 96.9526 96.2089 94.8215 96.1305 93.9533C96.0521 93.0851 96.7239 90.0527 96.7239 90.0527C96.7239 90.0527 96.6457 88.9462 97.0412 88.1583C97.4367 87.3704 97.5974 84.7646 97.5974 84.7646L101.4 76.0784L103.254 68.4207L128.407 68.1839C128.407 68.1839 128.5 68.8469 128.65 70.0541C128.8 71.2614 129.019 73.0494 129.268 75.2543C129.486 77.2581 129.725 79.6148 129.959 82.2346C130.702 90.5967 129.118 92.0975 129.118 92.0975Z" fill="#2F2E41"/>
<path d="M126.782 22.9757L120.917 29.2148C120.917 29.2148 113.393 26.2133 114.184 25.1869C114.491 24.7887 114.442 23.5444 114.265 22.1516C113.987 19.9673 113.393 17.4483 113.393 17.4483C113.393 17.4483 126.543 15.3171 125.432 17.5262C125.02 18.3352 125.099 19.2774 125.35 20.1479C125.671 21.161 126.155 22.1156 126.782 22.9748V22.9757Z" fill="#FBBEBE"/>
<path opacity="0.1" d="M125.432 17.5271C125.021 18.336 124.835 18.414 125.088 19.2845C123.368 21.1321 121.174 23.1339 118.463 23.1339C117.006 23.1362 115.569 22.8001 114.265 22.1525C113.987 19.9682 113.394 17.4491 113.394 17.4491C113.394 17.4491 126.543 15.318 125.432 17.5271Z" fill="black"/>
<path d="M127.89 13.5014C127.89 15.9934 126.897 18.3835 125.128 20.1456C123.36 21.9078 120.962 22.8978 118.461 22.8978C115.961 22.8978 113.562 21.9078 111.794 20.1456C110.026 18.3835 109.033 15.9934 109.033 13.5014C109.033 13.4562 109.033 13.4109 109.033 13.366C109.051 10.8744 110.061 8.492 111.842 6.74289C113.622 4.99378 116.027 4.02123 118.527 4.03918C121.027 4.05714 123.418 5.06413 125.173 6.83863C126.928 8.61314 127.904 11.0098 127.886 13.5014H127.89Z" fill="#FBBEBE"/>
<path opacity="0.1" d="M129.256 75.4827C128.007 75.4931 123.848 75.5279 119.201 75.6018H119.145L117.609 75.6276H117.562C112.051 75.7159 106.621 74.6421 104.441 74.8475C99.8063 75.2806 106.105 70.5835 106.105 70.5835C109.558 71.419 113.111 71.7768 116.662 71.6469L117.995 71.5791C122.207 71.341 126.441 70.9469 128.649 70.2858C128.803 71.5042 129.017 73.2862 129.256 75.4827Z" fill="black"/>
<path d="M129.256 75.2466C128.007 75.2466 123.848 75.2918 119.201 75.3637H119.145L117.608 75.3904H117.561C112.05 75.4787 106.62 74.4049 104.44 74.6081C99.8054 75.0412 106.104 70.3458 106.104 70.3458C109.557 71.1801 113.11 71.5379 116.661 71.4092L117.994 71.3395C122.206 71.1027 126.44 70.7073 128.649 70.0462C128.803 71.2659 129.017 73.0416 129.256 75.2466Z" fill="#7C5C5C"/>
<path opacity="0.1" d="M115.927 25.5811L108.639 28.9767L103.015 72.3192C103.015 72.3192 106.342 70.8205 108.243 71.767C110.143 72.7136 116.005 71.8471 116.005 71.8471C116.005 71.8471 120.283 71.609 120.918 72.0839C121.552 72.5588 128.996 70.111 128.996 70.111C128.996 70.111 130.344 67.1095 129.314 66.6374C128.284 66.1653 129.631 61.505 129.631 61.505L128.997 30.2401L127.73 26.2146L124.324 24.1603L120.834 26.9237L119.186 27.1605L115.927 25.5811Z" fill="black"/>
<path d="M115.927 25.1068L108.639 28.5024L103.015 71.8488C103.015 71.8488 106.342 70.3482 108.243 71.2967C110.143 72.2451 116.005 71.3746 116.005 71.3746C116.005 71.3746 120.283 71.1378 120.918 71.6114C121.552 72.085 128.996 69.6385 128.996 69.6385C128.996 69.6385 130.344 66.6392 129.314 66.1649C128.284 65.6907 129.631 61.0325 129.631 61.0325L128.997 29.7635L127.73 25.738L124.324 23.6839L120.834 26.4492L119.186 26.6832L115.927 25.1068Z" fill="#E6E6E6"/>
<path opacity="0.1" d="M115.808 27.1206C115.808 27.1206 117.907 29.6068 117.868 30.12C117.829 30.6331 117.75 31.8567 117.75 31.8567L116.164 35.0554C116.164 35.0554 115.293 39.0423 115.293 39.8718C115.293 40.7012 113.907 47.8784 113.907 47.8784L112.243 58.9317L110.144 73.4192L112.283 77.09L114.819 74.9588L118.185 49.1405L118.897 44.049C118.897 44.049 119.649 34.8907 119.649 33.9442C119.649 32.9976 119.215 30.5096 119.215 30.5096C119.215 30.5096 119.73 28.1404 121.868 27.5882C124.007 27.036 121.71 27.4691 121.71 27.4691L120.474 26.4817L119.404 26.917C119.404 26.917 116.442 26.0161 115.808 27.1206Z" fill="black"/>
<path d="M115.571 26.8886C115.571 26.8886 117.67 29.3747 117.631 29.8879C117.592 30.4011 117.512 31.6247 117.512 31.6247L115.927 34.8233C115.927 34.8233 115.066 38.8058 115.066 39.6335C115.066 40.4612 113.68 47.6401 113.68 47.6401L112.005 58.7098L109.916 73.1876L112.057 76.8605L114.58 74.7233L117.95 48.911L118.663 43.8195C118.663 43.8195 119.415 34.6612 119.415 33.7128C119.415 32.7643 118.98 30.2782 118.98 30.2782C118.98 30.2782 119.495 27.9102 121.633 27.3568C123.772 26.8033 121.475 27.2397 121.475 27.2397L120.239 26.2522L119.186 26.6828C119.186 26.6828 116.205 25.7787 115.571 26.8886Z" fill="#2F2E41"/>
<path opacity="0.1" d="M114.185 22.7395C114.185 22.7395 113.867 22.9763 113.789 24.5544C113.711 26.1326 112.601 29.6868 112.601 29.6868C112.601 29.6868 116.721 26.8434 118.781 27.1596L114.185 22.7395Z" fill="black"/>
<path d="M114.185 22.2653C114.185 22.2653 113.867 22.5021 113.789 24.0821C113.711 25.6622 112.601 29.2145 112.601 29.2145C112.601 29.2145 116.721 26.373 118.781 26.6895L114.185 22.2653Z" fill="#E6E6E6"/>
<path opacity="0.1" d="M125.434 21.475L118.937 27.1598C118.937 27.1598 124.404 30.3974 125.117 31.1877C125.83 31.9779 126.543 23.449 126.543 23.449L125.434 21.475Z" fill="black"/>
<path d="M125.671 21.0027L119.186 26.6834C119.186 26.6834 124.651 29.9189 125.367 30.7089C126.082 31.499 126.794 22.9711 126.794 22.9711L125.671 21.0027Z" fill="#E6E6E6"/>
<path opacity="0.1" d="M114.422 22.7397C114.422 22.7397 113.709 22.3845 113.035 23.4112C112.362 24.4378 111.095 24.9098 111.095 24.9098C111.095 24.9098 103.885 26.0555 103.609 27.0018L100.243 27.2072C100.243 27.2072 99.0546 27.3632 98.9345 29.8515C98.8144 32.3398 98.1743 32.5697 98.1743 32.5697C98.1743 32.5697 96.788 35.0169 96.9053 36.2794C97.0226 37.5419 95.8361 38.1737 95.8361 38.1737L100.78 51.0037C100.78 51.0037 100.939 56.2943 100.026 58.228C99.114 60.1618 97.4127 68.729 97.4127 68.729C97.4127 68.729 98.1275 68.571 98.0864 69.043C98.0454 69.5151 97.2151 74.6889 97.2151 74.6889C97.2151 74.6889 96.9775 76.7419 96.5826 77.4522C96.1878 78.1626 96.1458 81.8745 96.1458 81.8745L95.5114 84.5578C95.5114 84.5578 97.0172 87.9144 99.3142 87.432C101.611 86.9496 105.797 78.0089 105.797 78.0089L108.451 68.3374L110.511 58.7849L111.104 52.3118L112.056 37.9819L113.442 28.5074C113.442 28.5074 114.978 23.412 114.422 22.7397Z" fill="black"/>
<path d="M114.185 22.2655C114.185 22.2655 113.472 21.9103 112.798 22.9369C112.125 23.9635 110.858 24.4375 110.858 24.4375C110.858 24.4375 103.648 25.581 103.372 26.5295L100.003 26.7349C100.003 26.7349 98.8155 26.8929 98.6975 29.3792C98.5796 31.8655 97.9436 32.1034 97.9436 32.1034C97.9436 32.1034 96.5573 34.5506 96.6768 35.8131C96.7962 37.0757 95.6075 37.7075 95.6075 37.7075L100.552 50.5374C100.552 50.5374 100.71 55.828 99.7998 57.7618C98.8893 59.6955 97.1861 68.2627 97.1861 68.2627C97.1861 68.2627 97.8989 68.1047 97.8598 68.5789C97.8207 69.0532 96.9885 74.2226 96.9885 74.2226C96.9885 74.2226 96.7509 76.2756 96.3541 76.986C95.9573 77.6964 95.9195 81.4082 95.9195 81.4082L95.29 84.0829C95.29 84.0829 96.7958 87.4396 99.0928 86.9572C101.39 86.4747 105.549 77.5237 105.549 77.5237L108.204 67.8522L110.264 58.2976L110.86 51.8245L111.81 37.4946L113.196 28.02C113.196 28.02 114.739 22.9367 114.185 22.2655Z" fill="#2F2E41"/>
<path opacity="0.1" d="M88.7537 52.8179L86.4567 54.3995C86.4567 54.3995 82.9546 54.5104 80.4332 53.8945L79.156 53.3279L78.8985 53.217L79.1622 53.299C80.4868 53.6913 81.5229 53.6829 82.3325 53.4121C85.5832 52.3219 85.2166 46.9719 85.0991 45.7606C85.0868 45.6394 85.0775 45.5552 85.0724 45.5307C85.0718 45.5259 85.0718 45.5211 85.0724 45.5163L85.0909 45.5471C85.1352 45.6198 85.1858 45.6885 85.2421 45.7524C85.2875 45.8037 85.3348 45.857 85.3864 45.9063L86.5338 48.1933L86.5462 48.2898L88.7537 52.8179Z" fill="black"/>
<path d="M96.7157 37.3835L95.6073 37.6997L95.4488 39.9581C95.4488 39.9581 94.1407 39.7527 93.7843 41.3007C93.4278 42.8487 92.7954 43.5591 92.7954 43.5591C92.7954 43.5591 90.6159 45.3759 90.4964 46.9136L89.1512 47.7348C89.1512 47.7348 86.0191 47.0081 85.3093 45.7544C85.3093 45.7544 86.7349 55.9393 79.1292 53.451C79.1292 53.451 87.6454 57.1629 88.0409 57.6761C88.4364 58.1893 91.0527 59.688 93.4278 58.4254C95.803 57.1629 96.3202 55.2207 96.3202 55.2207C96.3202 55.2207 98.6172 52.0223 98.6975 51.5479C98.7779 51.0734 100.551 50.5215 100.551 50.5215L103.959 42.3088L96.7157 37.3835Z" fill="#2F2E41"/>
<path opacity="0.1" d="M124.524 26.2133L125.671 21.0038C125.671 21.0038 126.186 22.7016 126.702 23.0958L128.405 24.3973C128.405 24.3973 130.109 25.1877 130.702 25.1877C131.295 25.1877 134.505 26.009 134.9 26.4503C135.296 26.8916 136.882 26.5693 136.882 26.5693C136.882 26.5693 138.188 27.0024 139.338 27.2797C140.487 27.557 141.041 29.4518 140.803 30.2011C140.707 30.5742 140.708 30.9654 140.805 31.3382C140.902 31.7109 141.093 32.0529 141.359 32.3323C141.832 32.8058 142.072 34.3463 142.072 34.3463C142.654 34.5353 143.138 34.9464 143.417 35.4898C143.814 36.3582 143.695 38.2532 143.695 38.2532L137.793 46.5431C137.793 46.5431 137.871 49.7418 137.635 50.4438C137.398 51.1457 138.459 63.2339 138.459 63.2339L139.695 83.9977C139.695 83.9977 138.071 85.3792 137.715 85.5375C137.359 85.6957 137 78.1938 137 77.919C137 77.6441 127.852 64.2605 127.852 64.2605C127.852 64.2605 126.616 62.2856 126.616 61.8523C126.616 61.4189 125.466 57.43 125.466 57.43L123.723 49.7323L124.524 26.2133Z" fill="black"/>
<path d="M144.185 37.8003C144.185 38.0713 144.17 38.2523 144.17 38.2523L138.274 46.536C138.274 46.536 138.356 49.7325 138.117 50.4366C137.979 50.8472 138.282 55.097 138.562 58.5849C138.768 61.1036 138.949 63.2267 138.949 63.2267L139.47 72.034L140.175 83.9906C140.175 83.9906 138.552 85.3721 138.195 85.5304C137.839 85.6886 137.483 78.1867 137.483 77.9099C137.483 77.6331 128.332 64.2534 128.332 64.2534C128.332 64.2534 127.096 62.2785 127.096 61.8452C127.096 61.4118 125.948 57.4229 125.948 57.4229L124.206 49.7243L124.997 26.1993L125.67 20.9898C125.67 20.9898 126.661 22.6876 127.176 23.0799C127.691 23.4721 128.878 24.3835 128.878 24.3835C128.878 24.3835 130.582 25.174 131.177 25.174C131.772 25.174 134.98 25.9952 135.375 26.4365C135.771 26.8778 137.357 26.5556 137.357 26.5556C137.357 26.5556 138.663 26.9887 139.81 27.2659C140.958 27.5432 141.514 29.438 141.277 30.1852C141.181 30.5584 141.181 30.9499 141.278 31.323C141.375 31.696 141.565 32.0385 141.831 32.3183C142.306 32.7918 142.544 34.3301 142.544 34.3301C143.127 34.5205 143.612 34.933 143.891 35.4777C144.168 36.0902 144.195 37.185 144.185 37.8003Z" fill="#2F2E41"/>
<path opacity="0.1" d="M95.7659 142.981C95.972 142.981 104.282 143.297 104.123 144.64C103.965 145.982 95.7659 142.981 95.7659 142.981Z" fill="black"/>
<path opacity="0.1" d="M97.6283 145.231C97.6283 145.231 103.213 146.138 101.748 146.968C100.284 147.797 97.6283 145.231 97.6283 145.231Z" fill="black"/>
<path opacity="0.1" d="M118.383 142.112C118.383 142.112 127.653 142.903 126.267 143.927C124.881 144.952 121.593 145.111 121.434 145.159C121.275 145.207 118.383 142.112 118.383 142.112Z" fill="black"/>
<path opacity="0.1" d="M117.275 146.179C117.275 146.179 122.425 147.048 122.581 148.027C122.738 149.006 117.275 146.179 117.275 146.179Z" fill="black"/>
<path opacity="0.1" d="M120.126 122.414C120.126 122.414 124.839 123.519 125.117 124.262L120.126 122.414Z" fill="black"/>
<path opacity="0.1" d="M101.944 125.81C101.944 125.81 99.4883 126.52 101.866 127.941C104.243 129.362 101.944 125.81 101.944 125.81Z" fill="black"/>
<path opacity="0.1" d="M112.837 87.8727C113.115 87.8727 117.433 86.4519 118.937 87.0844C120.441 87.7168 122.305 87.7146 122.305 87.7146L112.837 87.8727Z" fill="black"/>
<path opacity="0.1" d="M113.394 92.3789L113.35 92.7689L109.669 102.418C109.669 102.418 109.076 105.337 108.559 106.996C108.235 108.122 107.977 109.266 107.787 110.422L111.056 90.2191L113.394 92.3789Z" fill="black"/>
<path d="M119.145 75.3637L117.608 75.3904H117.561L116.661 71.4116C117.104 71.3901 117.546 71.3664 117.993 71.3397L119.145 75.3637Z" fill="#2F2E41"/>
<path d="M137.832 70.5465L136.845 71.3554L133.55 74.0553C133.55 74.0553 124.636 78.7936 122.181 74.2934C120.016 70.329 130.122 67.4981 132.555 66.88C132.886 66.7959 133.073 66.7547 133.073 66.7547L137.832 70.5465Z" fill="#FBBEBE"/>
<path opacity="0.1" d="M99.7665 31.7398C99.7665 31.7398 101.509 32.5281 101.905 33.6342C102.301 34.7402 99.7665 31.7398 99.7665 31.7398Z" fill="black"/>
<path opacity="0.1" d="M94.3796 43.5815C94.3796 43.5815 91.8437 46.6609 92.8738 47.8455C93.9039 49.0301 94.3796 43.5815 94.3796 43.5815Z" fill="black"/>
<path opacity="0.1" d="M139.694 33.4766C139.694 33.4766 137.317 33.7134 137.239 35.7658L139.694 33.4766Z" fill="black"/>
<path opacity="0.1" d="M117.67 65.8461C117.908 65.6093 123.374 57.5562 124.641 58.2665L117.67 65.8461Z" fill="black"/>
<path opacity="0.1" d="M127.89 13.5011C127.892 15.0483 127.509 16.5719 126.776 17.9356L126.706 17.9234C126.108 17.7981 125.797 17.1021 125.34 16.6709C125.059 16.4046 124.702 16.2325 124.319 16.1788C123.935 16.125 123.545 16.1924 123.201 16.3713C122.855 16.5784 122.573 16.8777 122.387 17.2356C122.201 17.5935 122.12 17.9959 122.151 18.3976C121.85 17.1329 121.945 15.7883 121.65 14.5215C121.355 13.2546 120.468 11.9738 119.254 11.9512C118.731 11.9512 118.119 12.1449 117.742 11.7458C117.513 11.509 117.466 11.1299 117.295 10.8527C116.428 9.45345 113.793 10.1608 112.71 10.8772C111.667 11.5661 110.377 12.7414 109.037 13.3573C109.055 10.8657 110.066 8.48336 111.846 6.73425C112.728 5.86818 113.772 5.18365 114.919 4.71975C116.067 4.25585 117.294 4.02166 118.532 4.03055C119.77 4.03944 120.994 4.29124 122.134 4.77157C123.275 5.2519 124.309 5.95135 125.178 6.83C126.047 7.70864 126.734 8.74927 127.199 9.89246C127.665 11.0357 127.9 12.259 127.891 13.4927L127.89 13.5011Z" fill="black"/>
<path d="M117.295 10.623C117.468 10.9084 117.514 11.2819 117.742 11.5161C118.119 11.9062 118.731 11.7071 119.254 11.7215C120.468 11.743 121.356 13.0252 121.65 14.2918C121.944 15.5584 121.856 16.901 122.15 18.1666C122.12 17.7651 122.202 17.363 122.388 17.0055C122.574 16.6481 122.856 16.3494 123.203 16.1431C123.546 15.9644 123.936 15.8971 124.319 15.9504C124.702 16.0038 125.059 16.1753 125.339 16.4408C125.797 16.8739 126.108 17.5679 126.705 17.6932C127.303 17.8185 127.879 17.2476 128.094 16.6195C128.308 15.9913 128.3 15.3035 128.436 14.6528C128.705 13.421 129.511 12.414 129.958 11.2427C130.489 9.81773 130.474 8.24791 129.917 6.833C129.62 6.09184 129.177 5.42472 128.887 4.68356C128.43 3.55857 125.894 2.04352 125.339 0.971708C124.406 -0.822543 125.008 0.2962 123.203 0.971708C122.342 1.29461 121.213 0.146374 120.34 0.431818C119.167 0.805522 117.917 0.524168 116.704 0.355829C115.49 0.18749 114.153 0.17113 113.179 0.971708C112.058 1.8853 111.751 3.60356 110.707 4.60757C110.264 5.02842 109.713 5.29642 109.246 5.68735C108.779 6.07827 108.377 6.65605 108.422 7.29066C108.492 8.1119 109.296 8.85091 108.999 9.60844C108.892 9.8273 108.743 10.0233 108.56 10.1854C107.677 11.1066 107.02 12.2198 106.642 13.4372C108.762 14.0961 111.057 11.768 112.715 10.6678C113.789 9.93306 116.428 9.23301 117.295 10.623Z" fill="#2F2E41"/>
<path opacity="0.1" d="M137.832 70.5465L136.845 71.3554C135.975 69.9183 132.406 67.0299 132.406 67.0299L132.56 66.882C132.892 66.7978 133.078 66.7567 133.078 66.7567L137.832 70.5465Z" fill="black"/>
<path d="M138.783 69.0837C138.783 69.0837 138.429 69.9624 138.062 70.7262C137.695 71.49 137.298 72.1756 137.277 71.6153C137.238 70.5088 132.644 66.7969 132.644 66.7969L133.262 66.1942L133.985 65.4961L138.783 69.0837Z" fill="#E6E6E6"/>
<path opacity="0.1" d="M138.942 63.2407L139.463 72.048C138.227 70.1407 134.855 65.2526 132.681 65.4106L137.951 59.3728C138.17 59.1287 138.372 58.8698 138.555 58.5978C138.757 61.118 138.942 63.2407 138.942 63.2407Z" fill="black"/>
<path opacity="0.1" d="M138.783 69.0837C138.783 69.0837 138.429 69.9624 138.062 70.7262C136.682 68.8396 134.783 66.6101 133.267 66.1933L133.99 65.4952L138.783 69.0837Z" fill="black"/>
<path d="M142.745 37.1536L144.17 38.2581C144.17 38.2581 146.546 38.2992 146.784 40.2722C147.022 42.2451 149.2 43.1464 149.2 43.1464C149.2 43.1464 150.824 44.7641 150.824 45.5143C150.824 46.2645 152.06 47.6085 152.06 47.7253C152.06 47.8422 153.248 50.2526 153.09 50.6857C152.931 51.1188 154.356 53.0157 153.914 53.7261C153.555 54.3632 153.237 55.0222 152.962 55.6991C152.962 55.6991 151.108 59.2527 150.15 59.9241C149.192 60.5955 144.843 66.2392 144.843 66.2392C144.843 66.2392 140.169 71.6077 140.169 73.2666C140.169 73.2666 135.611 65.687 132.92 65.8758L138.188 59.8358C138.188 59.8358 139.1 58.8503 139.139 58.2571C139.178 57.6638 141.673 54.942 142.862 54.8225C142.862 54.8225 143.068 53.2048 142.544 53.1649C142.021 53.1251 141.594 51.8613 141.594 51.8613C141.594 51.8613 138.109 47.7553 138.069 45.1501C138.03 42.5449 142.745 37.1536 142.745 37.1536Z" fill="#2F2E41"/>
<path opacity="0.1" d="M144.844 40.8982C144.844 40.8982 141.515 43.3453 142.23 44.1336C142.946 44.9219 144.844 40.8982 144.844 40.8982Z" fill="black"/>
<path opacity="0.1" d="M106.738 155.89C106.738 155.89 103.411 158.062 101.748 157.738C100.085 157.413 98.3798 158.292 98.3798 158.292C97.2337 159.54 95.7884 160.477 94.1793 161.016C91.4868 161.924 87.7253 161.569 85.5869 160.856C84.5734 160.521 84.493 160.086 84.9792 159.553C87.305 160.014 92.5025 160.932 93.9033 160.265C95.7244 159.396 98.3385 157.501 98.3385 157.501C98.3385 157.501 101.748 157.028 102.222 157.028C102.559 157.028 105.19 155.946 106.675 155.324L106.738 155.89Z" fill="black"/>
<path opacity="0.1" d="M101.411 40.4239C101.411 40.4239 101.411 49.4242 100.638 50.3131C99.8657 51.2019 101.411 40.4239 101.411 40.4239Z" fill="black"/>
<path opacity="0.1" d="M137.119 43.3249L138.266 46.541C138.266 46.541 138.723 43.3845 137.119 43.3249Z" fill="black"/>
<g opacity="0.1">
<path opacity="0.1" d="M109.111 8.82249C109.401 8.08132 108.641 7.35673 108.542 6.56412C108.441 6.78809 108.397 7.03358 108.415 7.27859C108.466 7.87596 108.909 8.43651 109.033 8.98867C109.064 8.9359 109.09 8.88016 109.111 8.82227V8.82249Z" fill="black"/>
<path opacity="0.1" d="M122.258 17.3238C121.974 16.0776 122.052 14.7596 121.768 13.5155C121.484 12.2715 120.587 10.9657 119.374 10.9452C118.851 10.9452 118.239 11.1362 117.86 10.7399C117.633 10.5059 117.586 10.124 117.415 9.84673C116.548 8.4475 113.913 9.15788 112.827 9.87343C111.206 10.9472 108.981 13.1911 106.905 12.6818C106.804 12.922 106.71 13.1642 106.635 13.4137C108.754 14.0726 111.05 11.7445 112.708 10.6443C113.789 9.92789 116.428 9.20718 117.296 10.6176C117.468 10.903 117.514 11.2765 117.743 11.5107C118.12 11.9008 118.732 11.7017 119.255 11.7161C120.468 11.7376 121.356 13.0198 121.65 14.2864C121.945 15.553 121.856 16.8957 122.151 18.1612C122.131 17.8783 122.167 17.5942 122.259 17.3255L122.258 17.3238Z" fill="black"/>
<path opacity="0.1" d="M128.213 15.8415C128.007 16.4696 127.432 17.0446 126.823 16.9152C126.213 16.7859 125.914 16.094 125.459 15.6628C125.179 15.3968 124.822 15.2251 124.438 15.1717C124.054 15.1183 123.664 15.1859 123.321 15.3651C122.99 15.5618 122.719 15.8428 122.534 16.1792C122.349 16.5156 122.258 16.8951 122.27 17.2784C122.428 16.7953 122.761 16.3878 123.203 16.1349C123.546 15.9562 123.936 15.8889 124.319 15.9422C124.702 15.9956 125.059 16.1671 125.34 16.4326C125.797 16.8657 126.108 17.5597 126.705 17.685C127.303 17.8103 127.88 17.2394 128.094 16.6113C128.207 16.2425 128.28 15.8625 128.312 15.4781C128.287 15.6011 128.253 15.7224 128.213 15.8415Z" fill="black"/>
<path opacity="0.1" d="M130.075 10.4641C129.631 11.6343 128.823 12.6443 128.555 13.8761C128.502 14.1245 128.471 14.3792 128.44 14.6336C128.712 13.4019 129.513 12.4 129.958 11.2339C130.156 10.706 130.28 10.1532 130.325 9.59143C130.265 9.88811 130.181 10.1798 130.076 10.4639L130.075 10.4641Z" fill="black"/>
</g>
<path d="M76.1461 39.8988L76.1309 39.9064C76.0904 39.9267 76.0741 39.9759 76.0945 40.0163L76.69 41.1939C76.7104 41.2342 76.7597 41.2505 76.8002 41.2301L76.8155 41.2225C76.8559 41.2022 76.8722 41.153 76.8518 41.1126L76.2563 39.935C76.2359 39.8947 76.1866 39.8784 76.1461 39.8988Z" fill="#3A3768"/>
<path d="M74.4578 37.6387L69.932 39.9116C69.6933 40.0314 69.5974 40.3214 69.7176 40.5592L74.8034 50.6172C74.9237 50.855 75.2146 50.9507 75.4532 50.8308L79.9791 48.558C80.2177 48.4381 80.3137 48.1482 80.1934 47.9104L75.1076 37.8523C74.9874 37.6145 74.6964 37.5189 74.4578 37.6387Z" fill="#3A3768"/>
<path d="M73.8494 38.293C73.8231 38.3047 73.7995 38.3218 73.7803 38.3431C73.761 38.3644 73.7464 38.3895 73.7375 38.4168C73.7285 38.4441 73.7255 38.4729 73.7284 38.5015C73.7313 38.53 73.7402 38.5576 73.7545 38.5825L73.7761 38.6215C73.7904 38.6465 73.7992 38.6742 73.802 38.7029C73.8048 38.7315 73.8015 38.7604 73.7924 38.7877C73.7833 38.815 73.7685 38.8401 73.749 38.8613C73.7296 38.8826 73.7058 38.8995 73.6794 38.911L71.3949 40.0586C71.3699 40.0729 71.3422 40.0817 71.3136 40.0847C71.2849 40.0876 71.256 40.0845 71.2286 40.0756C71.2012 40.0667 71.176 40.0522 71.1546 40.033C71.1332 40.0138 71.1161 39.9903 71.1044 39.9641L71.0828 39.923C71.071 39.8968 71.0539 39.8733 71.0325 39.8541C71.0111 39.8349 70.9859 39.8204 70.9586 39.8115C70.9312 39.8026 70.9022 39.7995 70.8736 39.8024C70.8449 39.8054 70.8172 39.8142 70.7922 39.8285L70.3473 40.0502C70.2985 40.0744 70.255 40.108 70.2194 40.149C70.1837 40.19 70.1566 40.2377 70.1395 40.2892C70.1225 40.3408 70.1158 40.3952 70.12 40.4493C70.1242 40.5034 70.1391 40.5562 70.1639 40.6045L75.024 50.2186C75.0483 50.2672 75.0819 50.3105 75.1231 50.346C75.1643 50.3816 75.2121 50.4086 75.2638 50.4256C75.3156 50.4426 75.3702 50.4492 75.4245 50.4451C75.4788 50.4409 75.5317 50.426 75.5802 50.4013L79.5664 48.3994C79.6149 48.3752 79.6581 48.3417 79.6936 48.3008C79.729 48.26 79.7561 48.2125 79.7731 48.1612C79.7902 48.1099 79.7969 48.0558 79.7928 48.0019C79.7888 47.948 79.7742 47.8954 79.7498 47.8472L74.8959 38.2316C74.8715 38.1835 74.8377 38.1406 74.7966 38.1055C74.7556 38.0704 74.7079 38.0436 74.6565 38.0269C74.605 38.0101 74.5507 38.0036 74.4967 38.0077C74.4428 38.0119 74.3901 38.0266 74.3419 38.051L73.8494 38.293Z" fill="#F7B731"/>
<path opacity="0.1" d="M48.3377 151.16H40.4604V152.403H48.3377V151.16Z" fill="black"/>
<path d="M65.9075 39.0583V63.5455C65.9081 63.8683 65.8447 64.1881 65.721 64.4864C65.5973 64.7847 65.4157 65.0558 65.1867 65.2841C64.9577 65.5123 64.6857 65.6933 64.3863 65.8165C64.087 65.9398 63.7661 66.003 63.4422 66.0024H60.7944V36.6036H63.442C63.7657 36.603 64.0863 36.6661 64.3855 36.7892C64.6846 36.9123 64.9565 37.093 65.1855 37.3209C65.4145 37.5489 65.5961 37.8196 65.72 38.1176C65.8438 38.4156 65.9075 38.7351 65.9073 39.0576L65.9075 39.0583Z" fill="#D0CDE1"/>
<path opacity="0.2" d="M63.8974 39.742V62.9725C63.7474 62.9973 63.5957 63.0096 63.4437 63.0093H63.0649V39.7051H63.4446C63.5963 39.7049 63.7477 39.7172 63.8974 39.742Z" fill="black"/>
<path d="M54.2186 74.6426H44.6729V150.92H54.2186V74.6426Z" fill="#D0CDE1"/>
<path d="M37.9683 149.724H59.8244C62.224 149.724 64.5253 150.674 66.2221 152.365C67.9189 154.056 68.8722 156.349 68.8722 158.741V160.128H28.9205V158.741C28.9205 156.349 29.8737 154.056 31.5705 152.365C33.2673 150.674 35.5687 149.724 37.9683 149.724Z" fill="#D0CDE1"/>
<path opacity="0.1" d="M54.2186 85.1437H44.6729V94.2935H54.2186V85.1437Z" fill="black"/>
<path opacity="0.1" d="M54.2186 84.5212H44.6729V93.6709H54.2186V84.5212Z" fill="black"/>
<path d="M55.2122 84.8314H43.7881V93.9811H55.2122V84.8314Z" fill="#D0CDE1"/>
<path d="M59.3606 68.8958V72.6931C59.3606 73.161 59.2681 73.6242 59.0885 74.0565C58.9088 74.4887 58.6455 74.8814 58.3135 75.2122C57.9816 75.543 57.5875 75.8054 57.1537 75.9845C56.72 76.1635 56.2552 76.2556 55.7857 76.2556H43.1146C42.1666 76.2556 41.2573 75.8802 40.587 75.2121C39.9166 74.5441 39.54 73.6379 39.54 72.6931V68.8958C39.5406 67.9516 39.9175 67.0463 40.5879 66.3791C41.2583 65.7118 42.1672 65.3373 43.1146 65.3379H55.7857C56.7332 65.3373 57.642 65.7118 58.3124 66.3791C58.9828 67.0463 59.3597 67.9516 59.3604 68.8958H59.3606Z" fill="#D0CDE1"/>
<path opacity="0.1" d="M59.3606 68.8958V69.2833C58.197 70.8034 56.6971 72.0355 54.9776 72.8836C53.2581 73.7316 51.3655 74.1728 49.4469 74.1728C47.5284 74.1728 45.6357 73.7316 43.9163 72.8836C42.1968 72.0355 40.6969 70.8034 39.5333 69.2833V68.8958C39.5339 67.9516 39.9109 67.0463 40.5812 66.3791C41.2516 65.7118 42.1605 65.3373 43.1079 65.3379H55.7792C56.2489 65.3367 56.7142 65.4279 57.1485 65.6061C57.5828 65.7844 57.9776 66.0462 58.3103 66.3767C58.6429 66.7072 58.9069 67.0998 59.0871 67.532C59.2674 67.9643 59.3603 68.4277 59.3606 68.8958Z" fill="black"/>
<path d="M37.986 33.5151H60.9078C61.1749 33.5151 61.431 33.6209 61.6199 33.8091C61.8087 33.9973 61.9148 34.2525 61.9148 34.5187V63.098C61.9148 65.9542 60.7763 68.6934 58.7498 70.713C56.7233 72.7326 53.9747 73.8672 51.1088 73.8672H47.7851C44.9191 73.8672 42.1706 72.7326 40.144 70.713C38.1175 68.6934 36.979 65.9542 36.979 63.098V34.5187C36.979 34.2525 37.0851 33.9973 37.2739 33.8091C37.4628 33.6209 37.7189 33.5151 37.986 33.5151Z" fill="#D0CDE1"/>
<path d="M42.1312 22.2476H56.5819C58.7009 22.2476 60.4188 23.5795 60.4188 25.2226V33.7459C60.4188 34.3381 59.7997 34.818 59.0364 34.818H39.6769C38.9133 34.818 38.2945 34.3379 38.2945 33.7459V25.2213C38.2945 23.5784 40.0124 22.2464 42.1314 22.2464L42.1312 22.2476Z" fill="#D0CDE1"/>
<path opacity="0.2" d="M56.9541 28.7741H41.4127V29.9172H56.9541V28.7741Z" fill="black"/>
<path opacity="0.1" d="M59.3582 37.1839H39.5354V51.5201H59.3582V37.1839Z" fill="black"/>
<path d="M59.3582 36.8716H39.5354V51.2077H59.3582V36.8716Z" fill="#F7B731"/>
<g opacity="0.1">
<path opacity="0.1" d="M43.9354 53.6646H39.8173C39.7231 53.6646 39.6467 53.7407 39.6467 53.8347V55.0808C39.6467 55.1748 39.7231 55.2509 39.8173 55.2509H43.9354C44.0297 55.2509 44.1061 55.1748 44.1061 55.0808V53.8347C44.1061 53.7407 44.0297 53.6646 43.9354 53.6646Z" fill="black"/>
<path opacity="0.1" d="M48.9818 53.6646H44.8636C44.7694 53.6646 44.693 53.7407 44.693 53.8347V55.0808C44.693 55.1748 44.7694 55.2509 44.8636 55.2509H48.9818C49.076 55.2509 49.1524 55.1748 49.1524 55.0808V53.8347C49.1524 53.7407 49.076 53.6646 48.9818 53.6646Z" fill="black"/>
<path opacity="0.1" d="M54.0281 53.6646H49.9099C49.8157 53.6646 49.7393 53.7407 49.7393 53.8347V55.0808C49.7393 55.1748 49.8157 55.2509 49.9099 55.2509H54.0281C54.1223 55.2509 54.1987 55.1748 54.1987 55.0808V53.8347C54.1987 53.7407 54.1223 53.6646 54.0281 53.6646Z" fill="black"/>
<path opacity="0.1" d="M59.0765 53.6646H54.9584C54.8642 53.6646 54.7878 53.7407 54.7878 53.8347V55.0808C54.7878 55.1748 54.8642 55.2509 54.9584 55.2509H59.0765C59.1708 55.2509 59.2472 55.1748 59.2472 55.0808V53.8347C59.2472 53.7407 59.1708 53.6646 59.0765 53.6646Z" fill="black"/>
<path opacity="0.1" d="M43.9354 56.7707H39.8173C39.7231 56.7707 39.6467 56.8468 39.6467 56.9408V58.1869C39.6467 58.2809 39.7231 58.357 39.8173 58.357H43.9354C44.0297 58.357 44.1061 58.2809 44.1061 58.1869V56.9408C44.1061 56.8468 44.0297 56.7707 43.9354 56.7707Z" fill="black"/>
<path opacity="0.1" d="M48.9818 56.7707H44.8636C44.7694 56.7707 44.693 56.8468 44.693 56.9408V58.1869C44.693 58.2809 44.7694 58.357 44.8636 58.357H48.9818C49.076 58.357 49.1524 58.2809 49.1524 58.1869V56.9408C49.1524 56.8468 49.076 56.7707 48.9818 56.7707Z" fill="black"/>
<path opacity="0.1" d="M54.0281 56.7707H49.9099C49.8157 56.7707 49.7393 56.8468 49.7393 56.9408V58.1869C49.7393 58.2809 49.8157 58.357 49.9099 58.357H54.0281C54.1223 58.357 54.1987 58.2809 54.1987 58.1869V56.9408C54.1987 56.8468 54.1223 56.7707 54.0281 56.7707Z" fill="black"/>
<path opacity="0.1" d="M43.9354 59.7991H39.8173C39.7231 59.7991 39.6467 59.8752 39.6467 59.9691V61.2153C39.6467 61.3092 39.7231 61.3854 39.8173 61.3854H43.9354C44.0297 61.3854 44.1061 61.3092 44.1061 61.2153V59.9691C44.1061 59.8752 44.0297 59.7991 43.9354 59.7991Z" fill="black"/>
<path opacity="0.1" d="M48.9818 59.7991H44.8636C44.7694 59.7991 44.693 59.8752 44.693 59.9691V61.2153C44.693 61.3092 44.7694 61.3854 44.8636 61.3854H48.9818C49.076 61.3854 49.1524 61.3092 49.1524 61.2153V59.9691C49.1524 59.8752 49.076 59.7991 48.9818 59.7991Z" fill="black"/>
<path opacity="0.1" d="M54.0281 59.7991H49.9099C49.8157 59.7991 49.7393 59.8752 49.7393 59.9691V61.2153C49.7393 61.3092 49.8157 61.3854 49.9099 61.3854H54.0281C54.1223 61.3854 54.1987 61.3092 54.1987 61.2153V59.9691C54.1987 59.8752 54.1223 59.7991 54.0281 59.7991Z" fill="black"/>
<path opacity="0.1" d="M43.9354 63.14H39.8173C39.7231 63.14 39.6467 63.2162 39.6467 63.3101V64.5562C39.6467 64.6502 39.7231 64.7263 39.8173 64.7263H43.9354C44.0297 64.7263 44.1061 64.6502 44.1061 64.5562V63.3101C44.1061 63.2162 44.0297 63.14 43.9354 63.14Z" fill="black"/>
<path opacity="0.1" d="M48.9818 63.14H44.8636C44.7694 63.14 44.693 63.2162 44.693 63.3101V64.5562C44.693 64.6502 44.7694 64.7263 44.8636 64.7263H48.9818C49.076 64.7263 49.1524 64.6502 49.1524 64.5562V63.3101C49.1524 63.2162 49.076 63.14 48.9818 63.14Z" fill="black"/>
<path opacity="0.1" d="M54.0281 63.14H49.9099C49.8157 63.14 49.7393 63.2162 49.7393 63.3101V64.5562C49.7393 64.6502 49.8157 64.7263 49.9099 64.7263H54.0281C54.1223 64.7263 54.1987 64.6502 54.1987 64.5562V63.3101C54.1987 63.2162 54.1223 63.14 54.0281 63.14Z" fill="black"/>
<path opacity="0.1" d="M59.0765 56.7707H54.9584C54.8642 56.7707 54.7878 56.8468 54.7878 56.9408V58.1869C54.7878 58.2809 54.8642 58.357 54.9584 58.357H59.0765C59.1708 58.357 59.2472 58.2809 59.2472 58.1869V56.9408C59.2472 56.8468 59.1708 56.7707 59.0765 56.7707Z" fill="black"/>
<path opacity="0.1" d="M58.5882 59.6286H55.4868C55.2517 59.6286 55.0612 59.8184 55.0612 60.0526V64.8583C55.0612 65.0925 55.2517 65.2824 55.4868 65.2824H58.5882C58.8232 65.2824 59.0137 65.0925 59.0137 64.8583V60.0526C59.0137 59.8184 58.8232 59.6286 58.5882 59.6286Z" fill="black"/>
</g>
<path d="M43.9354 53.3522H39.8173C39.7231 53.3522 39.6467 53.4284 39.6467 53.5223V54.7685C39.6467 54.8624 39.7231 54.9385 39.8173 54.9385H43.9354C44.0297 54.9385 44.1061 54.8624 44.1061 54.7685V53.5223C44.1061 53.4284 44.0297 53.3522 43.9354 53.3522Z" fill="white"/>
<path d="M48.9818 53.3522H44.8636C44.7694 53.3522 44.693 53.4284 44.693 53.5223V54.7685C44.693 54.8624 44.7694 54.9385 44.8636 54.9385H48.9818C49.076 54.9385 49.1524 54.8624 49.1524 54.7685V53.5223C49.1524 53.4284 49.076 53.3522 48.9818 53.3522Z" fill="white"/>
<path d="M54.0281 53.3522H49.9099C49.8157 53.3522 49.7393 53.4284 49.7393 53.5223V54.7685C49.7393 54.8624 49.8157 54.9385 49.9099 54.9385H54.0281C54.1223 54.9385 54.1987 54.8624 54.1987 54.7685V53.5223C54.1987 53.4284 54.1223 53.3522 54.0281 53.3522Z" fill="white"/>
<path d="M59.0766 53.3522H54.9584C54.8642 53.3522 54.7878 53.4284 54.7878 53.5223V54.7685C54.7878 54.8624 54.8642 54.9385 54.9584 54.9385H59.0766C59.1708 54.9385 59.2472 54.8624 59.2472 54.7685V53.5223C59.2472 53.4284 59.1708 53.3522 59.0766 53.3522Z" fill="#2F2E41"/>
<path d="M43.9354 56.4583H39.8173C39.7231 56.4583 39.6467 56.5345 39.6467 56.6284V57.8746C39.6467 57.9685 39.7231 58.0446 39.8173 58.0446H43.9354C44.0297 58.0446 44.1061 57.9685 44.1061 57.8746V56.6284C44.1061 56.5345 44.0297 56.4583 43.9354 56.4583Z" fill="white"/>
<path d="M48.9818 56.4583H44.8636C44.7694 56.4583 44.693 56.5345 44.693 56.6284V57.8746C44.693 57.9685 44.7694 58.0446 44.8636 58.0446H48.9818C49.076 58.0446 49.1524 57.9685 49.1524 57.8746V56.6284C49.1524 56.5345 49.076 56.4583 48.9818 56.4583Z" fill="white"/>
<path d="M54.0281 56.4583H49.9099C49.8157 56.4583 49.7393 56.5345 49.7393 56.6284V57.8746C49.7393 57.9685 49.8157 58.0446 49.9099 58.0446H54.0281C54.1223 58.0446 54.1987 57.9685 54.1987 57.8746V56.6284C54.1987 56.5345 54.1223 56.4583 54.0281 56.4583Z" fill="white"/>
<path d="M43.9354 59.4867H39.8173C39.7231 59.4867 39.6467 59.5628 39.6467 59.6568V60.9029C39.6467 60.9969 39.7231 61.073 39.8173 61.073H43.9354C44.0297 61.073 44.1061 60.9969 44.1061 60.9029V59.6568C44.1061 59.5628 44.0297 59.4867 43.9354 59.4867Z" fill="white"/>
<path d="M48.9818 59.4867H44.8636C44.7694 59.4867 44.693 59.5628 44.693 59.6568V60.9029C44.693 60.9969 44.7694 61.073 44.8636 61.073H48.9818C49.076 61.073 49.1524 60.9969 49.1524 60.9029V59.6568C49.1524 59.5628 49.076 59.4867 48.9818 59.4867Z" fill="white"/>
<path d="M54.0281 59.4867H49.9099C49.8157 59.4867 49.7393 59.5628 49.7393 59.6568V60.9029C49.7393 60.9969 49.8157 61.073 49.9099 61.073H54.0281C54.1223 61.073 54.1987 60.9969 54.1987 60.9029V59.6568C54.1987 59.5628 54.1223 59.4867 54.0281 59.4867Z" fill="white"/>
<path d="M43.9354 62.8276H39.8173C39.7231 62.8276 39.6467 62.9038 39.6467 62.9977V64.2439C39.6467 64.3378 39.7231 64.4139 39.8173 64.4139H43.9354C44.0297 64.4139 44.1061 64.3378 44.1061 64.2439V62.9977C44.1061 62.9038 44.0297 62.8276 43.9354 62.8276Z" fill="white"/>
<path d="M48.9818 62.8276H44.8636C44.7694 62.8276 44.693 62.9038 44.693 62.9977V64.2439C44.693 64.3378 44.7694 64.4139 44.8636 64.4139H48.9818C49.076 64.4139 49.1524 64.3378 49.1524 64.2439V62.9977C49.1524 62.9038 49.076 62.8276 48.9818 62.8276Z" fill="white"/>
<path d="M54.0281 62.8276H49.9099C49.8157 62.8276 49.7393 62.9038 49.7393 62.9977V64.2439C49.7393 64.3378 49.8157 64.4139 49.9099 64.4139H54.0281C54.1223 64.4139 54.1987 64.3378 54.1987 64.2439V62.9977C54.1987 62.9038 54.1223 62.8276 54.0281 62.8276Z" fill="white"/>
<path d="M59.0766 56.4583H54.9584C54.8642 56.4583 54.7878 56.5345 54.7878 56.6284V57.8746C54.7878 57.9685 54.8642 58.0446 54.9584 58.0446H59.0766C59.1708 58.0446 59.2472 57.9685 59.2472 57.8746V56.6284C59.2472 56.5345 59.1708 56.4583 59.0766 56.4583Z" fill="#2F2E41"/>
<path d="M58.5882 59.3183H55.4868C55.2517 59.3183 55.0612 59.5082 55.0612 59.7424V64.548C55.0612 64.7823 55.2517 64.9721 55.4868 64.9721H58.5882C58.8232 64.9721 59.0137 64.7823 59.0137 64.548V59.7424C59.0137 59.5082 58.8232 59.3183 58.5882 59.3183Z" fill="#F7B731"/>
<path d="M51.5555 49.4664H49.4192V49.7213H51.5555V49.4664Z" fill="white"/>
<path d="M54.5476 49.4664H52.4113V49.7213H54.5476V49.4664Z" fill="white"/>
<path d="M57.5399 49.4664H55.4036V49.7213H57.5399V49.4664Z" fill="white"/>
</g>
<defs>
<clipPath id="clip0">
<rect width="154" height="166" fill="white"/>
</clipPath>
</defs>
</svg>
